<svg height='100px' width='100px'  fill="#fcd98d" xmlns="http://www.w3.org/2000/svg" xmlns:xlink="http://www.w3.org/1999/xlink" version="1.1" x="0px" y="0px" viewBox="0 0 30 30" enable-background="new 0 0 30 30" xml:space="preserve"><path fill="#fcd98d" d="M6.655,14.313c0.4,0.27,0.949,0.162,1.23-0.228c0.028-0.038,0.692-0.943,2.874-0.932  c1.134,0.001,1.68,0.275,2.312,0.593c0.682,0.342,1.453,0.731,2.818,0.731c0.037,0,0.071,0,0.107-0.002  c2.688-0.038,4.641-1.76,4.724-1.833c0.365-0.327,0.396-0.887,0.07-1.254c-0.326-0.367-0.889-0.401-1.257-0.075  c-0.016,0.013-1.557,1.354-3.562,1.381c-1.005,0.013-1.484-0.229-2.101-0.54c-0.729-0.367-1.555-0.78-3.109-0.782H10.75  c-3.164,0-4.244,1.561-4.355,1.739C6.136,13.518,6.257,14.043,6.655,14.313"></path><path fill="#fcd98d" d="M19.531,16.026c-0.015,0.013-1.564,1.352-3.56,1.379c-0.987,0.006-1.485-0.229-2.102-0.54  c-0.729-0.366-1.555-0.781-3.11-0.782h-0.009c-3.165,0-4.246,1.562-4.358,1.742c-0.257,0.404-0.137,0.931,0.263,1.199  c0.399,0.272,0.947,0.164,1.229-0.227c0.028-0.035,0.699-0.935,2.867-0.935h0.006c1.135,0.003,1.68,0.278,2.313,0.595  c0.682,0.343,1.453,0.73,2.818,0.73c0.035,0,0.072,0,0.108-0.002c2.688-0.036,4.641-1.761,4.724-1.832  c0.366-0.329,0.396-0.894,0.069-1.259C20.461,15.729,19.896,15.699,19.531,16.026"></path><path fill="#fcd98d" d="M25.979,4.871H4.07c-2.064,0-3.743,1.678-3.743,3.743v12.988c0,2.063,1.678,3.741,3.743,3.741h0.253  c0.019,0.768,0.911,1.385,2.012,1.385c1.102,0,1.993-0.617,2.012-1.385h13.541c0.018,0.768,0.91,1.385,2.011,1.385  c1.102,0,1.994-0.617,2.013-1.385h0.067c2.064,0,3.743-1.678,3.743-3.741V8.614C29.722,6.549,28.043,4.871,25.979,4.871z   M23.62,21.982H3.646V8.167H23.62V21.982z M26.681,11.057c0.809,0,1.463,0.656,1.463,1.462c0,0.808-0.654,1.464-1.463,1.464  c-0.807,0-1.462-0.656-1.462-1.464C25.219,11.713,25.874,11.057,26.681,11.057z M26.681,16.188c0.809,0,1.463,0.656,1.463,1.463  c0,0.808-0.654,1.464-1.463,1.464c-0.807,0-1.462-0.656-1.462-1.464C25.219,16.844,25.874,16.188,26.681,16.188z"></path></svg>